<?xml version="1.0" encoding="utf-8"?>
<!-- Generator: Adobe Illustrator 24.0.0, SVG Export Plug-In . SVG Version: 6.00 Build 0)  -->
<svg version="1.1" id="Layer_1" xmlns="http://www.w3.org/2000/svg" xmlns:xlink="http://www.w3.org/1999/xlink" x="0px" y="0px"
	 viewBox="0 0 150 150" style="enable-background:new 0 0 150 150;" xml:space="preserve">
<style type="text/css">
	.st0{fill:#FFFFFF;}
</style>
<path class="st0" d="M41.5,43.8c-1.3,0.4-1.8,1.1-1.8,2.3c0,1,0.5,1.6,1.6,2.1l0.8,0.3h32.9c26.2,0,33.1,0,33.6-0.2
	c1.3-0.4,1.8-1,1.8-2.2c0-1.3-0.4-1.7-1.8-2.2l-1-0.4H75.1C42.8,43.5,42.4,43.5,41.5,43.8z"/>
<path class="st0" d="M41.7,60.2c-1.5,0.4-2.1,1.1-2,2.5c0.1,1.1,0.1,1.2,1.2,1.7l1.1,0.5l33.1,0c36,0,33.8,0,34.8-0.9
	c0.6-0.5,0.6-2.4,0.1-2.9c-0.2-0.2-0.8-0.5-1.3-0.7l-1-0.4H75.1C44.9,59.9,42.7,60,41.7,60.2z"/>
<path class="st0" d="M105.7,73c-12.5,1.6-23.6,9.5-29.4,20.7c-3,5.8-4.2,11-4.2,17.8c0,6.2,1.1,11,3.5,16.4
	c3.3,7.2,9.7,13.9,17,17.8c3,1.6,7.7,3.2,11.3,3.8s9.8,0.6,13.4,0c19-3.3,32.6-20.2,31.9-39.5c-0.3-7.6-2.4-14-6.7-20.5
	c-1.9-2.9-7.1-8.1-10-10C124.7,74.1,115,71.8,105.7,73z M115.4,86c6,3.7,3.5,12.8-3.6,12.8c-3,0-5.5-1.8-6.5-4.7
	c-0.6-1.6-0.6-2.8,0-4.5c1-3,3.4-4.7,6.6-4.7C113.5,85,114,85.2,115.4,86z M116.5,102.7c0.8,0.6,0.8,0.9,0.8,2.5
	c0,1.5-1.6,10.5-3.4,19.2c-0.3,1.6-0.6,3.6-0.6,4.6c0,3.4,1.8,4.2,5.5,2.3c2.1-1.1,2.8-0.9,3,0.4c0.2,1.7-4.5,5.1-8.1,5.7
	c-2.3,0.4-5.9,0.4-7.6-0.1c-1.8-0.5-3.9-2.3-4.8-4c-0.9-1.9-0.8-3.6,1.1-14.5c0.9-5.5,1.8-10.3,1.8-10.7c0-1.3-0.9-2.1-2.8-2.3
	c-2.3-0.3-3.1-0.9-3-2.1c0.1-1.6,0.7-1.7,9.4-1.7h7.8L116.5,102.7z"/>
<g>
	<path class="st0" d="M21,124.6c-5.2,0-9.5-4.3-9.5-9.5V21.2c0-5.2,4.3-9.5,9.5-9.5h85.6c5.2,0,9.5,4.3,9.5,9.5h-3
		c0-3.6-2.9-6.5-6.5-6.5H21c-3.6,0-6.5,2.9-6.5,6.5v93.9c0,3.6,2.9,6.5,6.5,6.5V124.6z"/>
</g>
<path class="st0" d="M77,81.4c1.6-1.8,3.4-3.5,5.2-5h-7.2c-32.2,0-32.6,0-33.6,0.3c-1.3,0.4-1.8,1.1-1.8,2.3c0,1,0.5,1.6,1.6,2.1
	l0.8,0.3h32.9C75.7,81.4,76.3,81.4,77,81.4z"/>
<path class="st0" d="M69.6,92.7c-26.9,0-27.3,0-28.1,0.3c-1.3,0.4-1.8,1.1-1.8,2.3c0,1,0.5,1.6,1.6,2.1l0.8,0.3h25.5
	C68.2,96,68.8,94.3,69.6,92.7z"/>
<path class="st0" d="M70.6,132.5H32.1c-3.6,0-6.5-2.9-6.5-6.5V32.1c0-3.6,2.9-6.5,6.5-6.5h85.6c3.6,0,6.5,2.9,6.5,6.5v36.2
	c1,0.3,2,0.7,3,1.1V32.1c0-5.2-4.3-9.5-9.5-9.5H32.1c-5.2,0-9.5,4.3-9.5,9.5V126c0,5.2,4.3,9.5,9.5,9.5h40.3
	C71.7,134.6,71.2,133.6,70.6,132.5z"/>
</svg>
