<?xml version="1.0" encoding="utf-8"?>
<!-- Generator: Adobe Illustrator 24.0.0, SVG Export Plug-In . SVG Version: 6.00 Build 0)  -->
<svg version="1.1" id="Layer_1" xmlns="http://www.w3.org/2000/svg" xmlns:xlink="http://www.w3.org/1999/xlink" x="0px" y="0px"
	 viewBox="0 0 150 150" style="enable-background:new 0 0 150 150;" xml:space="preserve">
<style type="text/css">
	.st0{fill:#FFFFFF;}
	.st1{fill:none;stroke:#FFFFFF;stroke-width:4;stroke-linecap:round;stroke-linejoin:round;stroke-miterlimit:10;}
</style>
<path class="st0" d="M43.2,38.4h3.6c1.7,0,3-1.4,3-3v-14c0-1.6-1.3-3-3-3h-3.6c-1.7,0-3,1.4-3,3v14C40.2,37.1,41.5,38.4,43.2,38.4z"
	/>
<path class="st0" d="M103.2,38.4h3.6c1.6,0,3-1.4,3-3v-14c0-1.6-1.3-3-3-3h-3.6c-1.6,0-3,1.4-3,3v14
	C100.2,37.1,101.5,38.4,103.2,38.4z"/>
<g>
	<rect x="53.6" y="26.6" class="st0" width="42.9" height="3"/>
	<path class="st0" d="M126,26.6h-12.4v3H126c3.6,0,6.5,2.9,6.5,6.5v84.7c0,3.6-2.9,6.5-6.5,6.5H23.1c-3.6,0-6.5-2.9-6.5-6.5V36.1
		c0-3.6,2.9-6.5,6.5-6.5h13.3v-3H23.1c-5.2,0-9.5,4.3-9.5,9.5v84.7c0,5.2,4.3,9.5,9.5,9.5H126c5.2,0,9.5-4.3,9.5-9.5V36.1
		C135.5,30.9,131.2,26.6,126,26.6z"/>
</g>
<path class="st0" d="M39.7,58.9c-0.6,0.4-0.8,1.1-0.8,2.3c0,1,0.2,1.6,0.7,2.1l0.4,0.3h14.5c11.5,0,14.5,0,14.7-0.2
	c0.6-0.4,0.8-1,0.8-2.2c0-1.3-0.2-1.7-0.8-2.2l-0.4-0.4H54.5C40.3,58.6,40.2,58.6,39.7,58.9z"/>
<path class="st0" d="M40.8,81.4c-1.3,0.4-1.8,1.1-1.8,2.3c0,1,0.5,1.6,1.6,2.1l0.8,0.3h32.9c26.2,0,33.1,0,33.6-0.2
	c1.3-0.4,1.8-1,1.8-2.2c0-1.3-0.4-1.7-1.8-2.2l-1-0.4H74.3C42.1,81.1,41.7,81.1,40.8,81.4z"/>
<path class="st0" d="M40.8,103.8c-1.3,0.4-1.8,1.1-1.8,2.3c0,1,0.5,1.6,1.6,2.1l0.8,0.3h32.9c26.2,0,33.1,0,33.6-0.2
	c1.3-0.4,1.8-1,1.8-2.2c0-1.3-0.4-1.7-1.8-2.2l-1-0.4H74.3C42.1,103.5,41.7,103.5,40.8,103.8z"/>
<polyline class="st1" points="82,59.4 92.6,68.7 106.7,50.9 "/>
</svg>
