<?xml version="1.0" encoding="utf-8"?>
<!-- Generator: Adobe Illustrator 24.0.0, SVG Export Plug-In . SVG Version: 6.00 Build 0)  -->
<svg version="1.1"
	 id="svg3025" xmlns:cc="http://creativecommons.org/ns#" xmlns:dc="http://purl.org/dc/elements/1.1/" xmlns:inkscape="http://www.inkscape.org/namespaces/inkscape" xmlns:rdf="http://www.w3.org/1999/02/22-rdf-syntax-ns#" xmlns:sodipodi="http://sodipodi.sourceforge.net/DTD/sodipodi-0.dtd" xmlns:svg="http://www.w3.org/2000/svg"
	 xmlns="http://www.w3.org/2000/svg" xmlns:xlink="http://www.w3.org/1999/xlink" x="0px" y="0px" viewBox="0 0 375 397"
	 style="enable-background:new 0 0 375 397;" xml:space="preserve">
<style type="text/css">
	.st0{fill:#CCCCCC;}
</style>
<sodipodi:namedview  bordercolor="#666666" borderopacity="1" gridtolerance="10" guidetolerance="10" id="namedview3031" inkscape:current-layer="svg3025" inkscape:cx="896" inkscape:cy="896" inkscape:pageopacity="0" inkscape:pageshadow="2" inkscape:window-height="480" inkscape:window-maximized="0" inkscape:window-width="640" inkscape:window-x="0" inkscape:window-y="25" inkscape:zoom="0.13169643" objecttolerance="10" pagecolor="#ffffff" showgrid="false">
	</sodipodi:namedview>
<g id="g3027" transform="matrix(1,0,0,-1,30.372881,1426.9492)">
	<path id="path3029" inkscape:connector-curvature="0" class="st0" d="M261.2,1172.6v-64.9c0-16.1-5.7-29.8-17.1-41.3
		s-25.2-17.1-41.3-17.1H34.2c-16.1,0-29.8,5.7-41.3,17.1s-17.1,25.2-17.1,41.3v168.6c0,16.1,5.7,29.8,17.1,41.3s25.2,17.1,41.3,17.1
		h142.7c1.9,0,3.4-0.6,4.7-1.8c1.2-1.2,1.8-2.8,1.8-4.7v-13c0-1.9-0.6-3.4-1.8-4.7s-2.8-1.8-4.7-1.8H34.2c-8.9,0-16.6-3.2-22.9-9.5
		s-9.5-14-9.5-22.9v-168.6c0-8.9,3.2-16.6,9.5-22.9s14-9.5,22.9-9.5h168.6c8.9,0,16.6,3.2,22.9,9.5s9.5,14,9.5,22.9v64.9
		c0,1.9,0.6,3.4,1.8,4.7c1.2,1.2,2.8,1.8,4.7,1.8h13c1.9,0,3.4-0.6,4.7-1.8C260.6,1176,261.2,1174.4,261.2,1172.6z M339,1347.7
		v-103.8c0-3.5-1.3-6.6-3.9-9.1c-2.6-2.6-5.6-3.9-9.1-3.9s-6.6,1.3-9.1,3.9l-35.7,35.7l-132.2-132.2c-1.4-1.4-2.9-2-4.7-2
		s-3.3,0.7-4.7,2l-23.1,23.1c-1.4,1.4-2,2.9-2,4.7c0,1.8,0.7,3.3,2,4.7l132.2,132.2l-35.7,35.7c-2.6,2.6-3.9,5.6-3.9,9.1
		s1.3,6.6,3.9,9.1c2.6,2.6,5.6,3.9,9.1,3.9h103.8c3.5,0,6.6-1.3,9.1-3.9C337.7,1354.2,339,1351.2,339,1347.7z"/>
</g>
</svg>
