<?xml version="1.0" encoding="utf-8"?>
<!-- Svg Vector Icons : http://www.onlinewebfonts.com/icon -->
<!DOCTYPE svg PUBLIC "-//W3C//DTD SVG 1.1//EN" "http://www.w3.org/Graphics/SVG/1.1/DTD/svg11.dtd">
<svg version="1.1" xmlns="http://www.w3.org/2000/svg" xmlns:xlink="http://www.w3.org/1999/xlink" x="0px" y="0px" viewBox="0 0 256 256" enable-background="new 0 0 256 256" xml:space="preserve">
<metadata> Svg Vector Icons : http://www.onlinewebfonts.com/icon </metadata>
<g><g><g><path fill="#000000" d="M145.8,10.3c-1.9,0.2-4.8,0.8-6.5,1.3l-3.1,0.8l-0.1,14.1L136,40.6l1.6-1.2c0.9-0.7,3.5-2.1,5.7-3.2c8.8-4.1,17.9-5,27.3-2.7c6.1,1.5,7.8,1.5,12.7,0.3c4.6-1.2,9-3.4,14.2-7.4c4.3-3.2,11.9-10.6,11.5-11.1c-0.1-0.1-4.3,0-9.2,0.2c-14.4,0.8-26.8-0.3-33.2-2.9c-1.3-0.5-3.5-1.3-4.9-1.6C158.6,10,150.1,9.7,145.8,10.3z"/><path fill="#000000" d="M126.4,34v21.8l-10.7,5.3C91.8,73,74.8,78.6,59.2,79.9c-3.9,0.3-5.5,0.7-8.1,1.9l-3.2,1.5v15.3c0,13.1,0.1,15.5,0.8,16.4l0.7,1.1h76.3h76.3l0.7-1.7c0.5-1.3,0.7-4.5,0.7-15.7c0-12.3-0.1-14.3-0.8-15.3c-1.1-1.5-5.3-3.4-7.5-3.4c-1,0-3.6-0.3-5.8-0.8c-12-2.2-27.1-8-47.4-18.1l-10.7-5.3V34V12.2h-2.4h-2.4V34z"/><path fill="#000000" d="M59.2,125.3c0.4,5.8-0.4,20.4-1.7,29.3c-1.2,8.4-4,19.7-6.4,26c-4.3,11.2-12.8,26.6-21.5,38.9c-2.2,3.1-4,5.8-4.1,6.1c-0.2,0.4,11.5,6.9,21.3,11.7c10.5,5.2,20.4,8.8,24.4,8.8c2.2,0,3-0.3,5.5-1.9c2.8-1.8,11.1-9.7,15.2-14.4l1.8-2.1l6.1,1c14.8,2.5,28.2,3.3,39.6,2.5c8-0.5,16.4-1.8,20.8-3.2l2.4-0.7l2.4,2.8c4.2,4.9,12.5,12.9,14.9,14.5c1.9,1.2,2.9,1.5,4.9,1.5c5.7,0,18.9-5.5,38.3-16c3.9-2.1,7.2-3.9,7.3-4.1c0.1-0.2-1.3-2.5-3.2-5.1c-9.4-13.3-17.5-28.2-20.9-38.8c-4.6-14-7.9-34.4-8.7-53.5l-0.3-7.6h-69.3H58.9L59.2,125.3z M130.6,154.9c0.8,3.8,2.5,11.6,3.6,17.6c1.2,5.9,2.8,12.6,3.6,14.7c2.9,7.9,9.3,19.1,16.9,29.5c2.9,4,4.1,6.1,3.7,6.3c-0.9,0.4-13.4,2.7-18.1,3.3c-5.9,0.7-15.1,0.6-22.6-0.2c-6.4-0.8-18.5-2.5-19.6-2.9c-0.4-0.1,0.3-1.4,1.8-3.4c10.2-13.6,17.3-27.2,20.1-38.7c0.6-2.8,2.5-10.2,4.1-16.4c1.5-6.2,3.2-12.7,3.6-14.3c0.4-1.6,0.9-2.8,1.1-2.6C129,147.9,129.8,151.2,130.6,154.9z"/></g></g></g>
</svg>