<?xml version="1.0" standalone="no"?>
<!DOCTYPE svg PUBLIC "-//W3C//DTD SVG 20010904//EN"
 "http://www.w3.org/TR/2001/REC-SVG-20010904/DTD/svg10.dtd">
<svg version="1.0" xmlns="http://www.w3.org/2000/svg"
 width="1280.000000pt" height="1272.000000pt" viewBox="0 0 1280.000000 1272.000000"
 preserveAspectRatio="xMidYMid meet">
<metadata>
Created by potrace 1.15, written by Peter Selinger 2001-2017
</metadata>
<g transform="translate(0.000000,1272.000000) scale(0.100000,-0.100000)"
fill="#000000" stroke="none">
<path d="M7044 12646 c-555 -416 -926 -901 -1095 -1433 -16 -50 -28 -73 -38
-73 -26 1 -293 38 -296 42 -2 2 -89 107 -194 233 -106 127 -195 231 -199 232
-4 2 -66 -122 -139 -275 l-132 -277 -286 -114 c-157 -63 -285 -118 -285 -122
0 -4 99 -100 220 -215 176 -166 221 -213 224 -238 3 -17 13 -157 22 -311 9
-154 18 -281 19 -283 1 -1 23 9 48 24 26 14 51 23 56 20 5 -4 17 -30 27 -59 9
-28 77 -203 152 -387 152 -377 227 -585 267 -742 28 -108 38 -122 71 -100 20
12 55 248 61 402 14 360 -78 686 -267 949 -34 46 -60 84 -58 86 2 1 46 25 98
52 l95 51 224 -57 c137 -35 228 -63 232 -72 4 -8 22 -90 39 -184 56 -300 121
-524 175 -607 14 -21 52 -101 85 -178 83 -195 169 -362 169 -330 0 14 -4 59
-9 100 -43 331 -60 1098 -32 1420 66 745 223 1345 496 1903 79 161 213 392
300 517 89 127 87 129 -50 26z"/>
<path d="M7845 12034 l-120 -124 -170 -11 c-93 -6 -171 -12 -173 -14 -1 -1 34
-71 79 -155 l82 -153 -42 -165 c-23 -90 -40 -166 -37 -169 3 -3 81 8 173 25
l167 30 146 -93 c120 -77 146 -90 152 -76 4 9 14 77 23 151 9 74 19 145 22
158 3 13 60 68 140 134 l134 112 -159 77 -160 76 -62 162 c-35 88 -66 161 -69
160 -3 0 -60 -56 -126 -125z"/>
<path d="M1480 11025 l-65 -43 -90 10 c-49 5 -229 10 -400 11 l-310 2 -3 -26
c-3 -25 0 -27 140 -63 124 -33 342 -96 388 -112 13 -5 13 -6 -1 -14 -10 -6
-107 5 -268 28 -138 21 -253 37 -255 35 -1 -2 29 -113 69 -247 l72 -244 -114
-232 c-62 -128 -113 -234 -113 -235 0 -2 57 -3 128 -4 70 0 186 -4 257 -7
l130 -6 120 -117 c66 -64 149 -144 185 -179 l66 -62 82 233 c46 128 86 238 90
244 4 6 107 64 230 128 122 64 222 120 222 123 -1 4 -78 66 -172 137 -214 163
-238 185 -238 219 0 14 4 26 9 26 5 0 66 -24 137 -54 912 -380 1522 -833 2185
-1626 57 -69 181 -222 274 -340 433 -547 455 -574 455 -549 0 41 -29 279 -45
369 -130 731 -492 1336 -1065 1778 -481 371 -1144 634 -1865 737 -66 10 -125
19 -132 21 -7 1 -15 20 -19 41 -11 63 -14 63 -84 18z"/>
<path d="M9265 10494 c-11 -3 -78 -16 -149 -30 -414 -81 -819 -265 -1126 -511
-221 -176 -366 -326 -745 -768 -128 -148 -273 -315 -323 -369 l-91 -100 30
-18 c16 -10 34 -18 40 -18 17 0 245 136 654 391 564 351 802 482 1085 597 320
129 662 201 900 187 417 -23 827 -135 1244 -339 374 -184 687 -407 987 -706
183 -181 295 -315 407 -482 36 -54 70 -98 77 -98 6 0 19 6 29 13 16 12 12 22
-51 132 -460 800 -929 1352 -1436 1686 -329 218 -682 355 -1067 414 -103 16
-426 29 -465 19z"/>
<path d="M7244 10286 c-299 -109 -433 -270 -478 -579 -16 -106 -21 -355 -10
-441 9 -61 34 -62 70 -3 15 23 83 129 152 236 199 310 283 473 358 694 32 94
35 128 10 127 -6 -1 -52 -16 -102 -34z"/>
<path d="M10470 9210 c-158 -189 -232 -271 -250 -274 -14 -3 -171 -24 -350
-47 -179 -22 -326 -42 -328 -44 -2 -1 67 -114 153 -250 85 -136 155 -248 155
-249 0 0 -129 -1 -288 -1 -165 0 -338 -6 -407 -14 -761 -82 -1381 -347 -1828
-781 -102 -98 -267 -286 -267 -302 0 -3 55 23 123 57 786 406 1585 543 2447
419 96 -14 176 -26 177 -28 2 -2 -3 -34 -11 -72 -8 -38 -13 -70 -12 -72 2 -1
78 16 169 39 l166 41 143 -36 c192 -50 416 -118 557 -171 866 -323 1443 -863
1874 -1753 65 -136 81 -161 93 -151 11 9 14 40 14 134 0 759 -360 1462 -1020
1990 -166 133 -381 271 -552 356 -69 34 -88 48 -88 65 0 14 77 93 255 260 140
131 255 242 255 245 0 4 -143 64 -317 134 -175 70 -323 133 -330 139 -6 6 -69
135 -141 286 -71 151 -137 292 -148 312 l-19 37 -225 -269z"/>
<path d="M2510 9060 c-168 -15 -200 -20 -200 -35 0 -22 26 -36 356 -186 362
-164 622 -296 795 -404 131 -81 341 -236 448 -329 36 -31 68 -53 73 -48 10 10
-82 244 -151 380 -183 365 -387 538 -716 608 -83 18 -461 27 -605 14z"/>
<path d="M8170 8963 c-157 -27 -383 -126 -542 -240 -390 -277 -547 -494 -673
-931 -14 -47 -24 -87 -22 -89 2 -1 57 51 123 118 260 264 453 398 881 612 400
201 570 265 719 274 74 5 97 2 128 -12 32 -15 39 -16 47 -4 5 8 9 17 9 21 0
13 -161 120 -254 169 -141 74 -289 104 -416 82z"/>
<path d="M2645 7905 c-11 -2 -76 -9 -145 -15 -629 -59 -1311 -319 -1987 -759
-73 -47 -133 -89 -133 -92 0 -4 78 17 173 46 668 205 1305 347 1852 414 331
41 433 46 860 46 468 0 601 -9 1022 -71 153 -22 175 -24 200 -11 l27 15 -90
45 c-356 179 -785 310 -1185 363 -104 13 -546 28 -594 19z"/>
<path d="M3606 7248 c-143 -16 -293 -90 -456 -227 -95 -80 -429 -408 -422
-415 3 -3 20 4 38 15 244 150 733 297 1254 376 131 20 419 23 515 6 33 -6 61
-10 63 -8 1 1 -24 18 -55 37 -199 122 -412 192 -662 217 -117 12 -163 12 -275
-1z"/>
<path d="M9060 7064 c-7 -16 -45 -117 -85 -224 -40 -107 -78 -208 -84 -224
l-11 -29 -41 59 c-54 78 -169 195 -245 250 -82 59 -229 127 -334 156 -74 20
-107 23 -255 22 -150 0 -181 -4 -266 -26 -176 -48 -414 -165 -414 -204 0 -17
11 -20 95 -27 547 -45 875 -124 1210 -292 l93 -47 -54 -29 c-30 -17 -114 -60
-186 -97 -73 -37 -132 -70 -130 -73 1 -4 100 -84 221 -180 120 -95 222 -182
226 -193 5 -12 25 -131 45 -266 20 -135 40 -257 43 -271 7 -26 10 -24 250 134
l243 160 287 -46 c157 -26 287 -46 287 -44 1 1 -33 128 -76 282 l-78 279 129
252 c72 139 130 256 130 261 0 5 -129 14 -287 21 l-288 12 -207 207 -207 207
-11 -30z"/>
<path d="M825 6589 c-145 -283 -151 -292 -190 -309 -22 -9 -163 -61 -313 -115
-150 -54 -271 -102 -270 -106 2 -5 105 -111 229 -236 216 -217 227 -230 232
-273 3 -25 9 -160 12 -300 3 -140 8 -272 11 -292 l6 -37 297 148 297 149 322
-93 c177 -51 322 -91 322 -89 0 3 -23 152 -50 332 l-51 327 186 275 c158 234
183 276 168 282 -10 4 -146 28 -303 53 -157 25 -297 48 -312 51 -21 4 -73 64
-230 265 -111 142 -204 259 -207 259 -3 0 -73 -131 -156 -291z"/>
<path d="M4705 6639 c-683 -64 -1297 -253 -1803 -556 -282 -168 -461 -309
-702 -552 -397 -400 -670 -855 -836 -1396 -83 -270 -144 -637 -144 -873 l0
-62 -77 5 c-245 15 -255 16 -250 3 2 -7 72 -180 155 -384 l151 -370 -145 -384
c-79 -211 -143 -384 -142 -386 2 -1 187 11 411 27 l408 29 318 -255 c175 -140
321 -255 324 -255 3 0 49 178 103 397 l98 396 344 228 345 227 -49 31 c-27 17
-184 115 -350 218 l-301 187 -98 361 c-54 198 -104 377 -110 397 l-10 37 -315
-264 c-312 -262 -315 -265 -360 -264 -97 1 -330 16 -335 21 -8 8 297 553 476
854 470 788 881 1272 1422 1676 359 268 858 552 1382 788 148 67 205 101 205
122 0 4 -6 7 -12 7 -7 -1 -53 -5 -103 -10z"/>
<path d="M7210 6539 c629 -522 1066 -1271 1309 -2244 16 -66 37 -156 46 -200
27 -131 94 -519 91 -523 -2 -2 -13 23 -23 55 -53 155 -156 423 -162 417 -3 -3
-92 -90 -196 -193 l-190 -188 -64 -6 c-71 -8 -211 -9 -211 -3 0 2 8 24 19 48
38 89 93 266 116 373 165 762 -152 1480 -925 2102 -58 47 -113 89 -123 94 -9
6 13 -27 50 -73 238 -296 428 -685 528 -1087 112 -449 125 -996 35 -1521 -34
-196 -132 -586 -161 -642 -47 -88 145 157 248 319 l59 91 57 -113 56 -113 -75
-263 c-41 -144 -72 -264 -69 -267 3 -3 127 14 276 37 l272 42 230 -155 c127
-86 232 -154 234 -152 2 2 23 126 47 276 25 150 49 277 54 282 13 13 16 -7 56
-349 85 -717 141 -1421 181 -2262 8 -181 18 -308 24 -314 6 -6 11 -8 11 -5 0
3 14 66 31 139 135 592 191 1108 192 1764 0 443 -20 774 -72 1204 -15 124 -15
144 -3 149 12 4 12 7 -2 17 -13 10 -23 56 -42 181 -111 754 -209 1171 -366
1564 -105 261 -269 546 -431 745 -85 105 -301 315 -402 392 -192 145 -411 271
-620 358 -77 31 -102 39 -85 24z"/>
<path d="M5000 6099 c-106 -12 -222 -37 -310 -66 -109 -36 -287 -124 -346
-172 -122 -97 -214 -268 -259 -480 -33 -158 -73 -609 -56 -639 11 -19 22 0
195 336 143 278 236 431 314 514 54 58 239 203 387 303 115 78 257 150 315
160 34 6 40 11 40 31 0 24 0 24 -102 23 -57 -1 -137 -5 -178 -10z"/>
<path d="M5795 5853 c-302 -226 -518 -568 -629 -995 -99 -378 -120 -765 -70
-1273 l7 -69 -52 37 c-34 25 -53 33 -56 25 -2 -7 -25 -130 -50 -273 -26 -143
-51 -264 -55 -270 -5 -5 -106 -82 -224 -170 -118 -88 -215 -162 -215 -165 0
-3 111 -64 246 -136 l246 -131 88 -258 c49 -142 91 -260 94 -263 3 -3 34 21
68 54 34 33 123 119 198 190 l136 131 279 7 c153 4 280 9 282 10 1 2 -51 115
-118 253 l-120 249 81 263 c45 144 78 265 76 268 -3 3 -128 -12 -277 -32 -253
-34 -272 -36 -295 -21 -14 9 -25 20 -25 24 0 28 67 533 100 753 66 446 137
826 220 1179 37 159 159 645 167 666 10 26 -11 15 -102 -53z"/>
<path d="M6447 5897 c-13 -20 -18 -89 -28 -388 -11 -360 -8 -639 11 -801 14
-124 42 -288 49 -288 8 0 72 102 120 190 47 88 106 258 120 350 16 94 13 264
-4 366 -9 49 -32 138 -52 198 -38 113 -169 387 -189 393 -6 2 -18 -7 -27 -20z"/>
</g>
</svg>
