<?xml version="1.0" encoding="utf-8"?>
<!-- Generator: Adobe Illustrator 24.0.0, SVG Export Plug-In . SVG Version: 6.00 Build 0)  -->
<svg version="1.1" id="Layer_1" xmlns="http://www.w3.org/2000/svg" xmlns:xlink="http://www.w3.org/1999/xlink" x="0px" y="0px"
	 viewBox="0 0 1280 1272" style="enable-background:new 0 0 1280 1272;" xml:space="preserve">
<style type="text/css">
	.st0{fill:#FFFFFF;}
</style>
<g transform="translate(0.000000,1272.000000) scale(0.100000,-0.100000)">
	<path class="st0" d="M7044,12646c-555-416-926-901-1095-1433c-16-50-28-73-38-73c-26,1-293,38-296,42c-2,2-89,107-194,233
		c-106,127-195,231-199,232c-4,2-66-122-139-275l-132-277l-286-114c-157-63-285-118-285-122s99-100,220-215c176-166,221-213,224-238
		c3-17,13-157,22-311s18-281,19-283c1-1,23,9,48,24c26,14,51,23,56,20c5-4,17-30,27-59c9-28,77-203,152-387c152-377,227-585,267-742
		c28-108,38-122,71-100c20,12,55,248,61,402c14,360-78,686-267,949c-34,46-60,84-58,86c2,1,46,25,98,52l95,51l224-57
		c137-35,228-63,232-72c4-8,22-90,39-184c56-300,121-524,175-607c14-21,52-101,85-178c83-195,169-362,169-330c0,14-4,59-9,100
		c-43,331-60,1098-32,1420c66,745,223,1345,496,1903c79,161,213,392,300,517C7183,12747,7181,12749,7044,12646z"/>
	<path class="st0" d="M7845,12034l-120-124l-170-11c-93-6-171-12-173-14c-1-1,34-71,79-155l82-153l-42-165c-23-90-40-166-37-169
		s81,8,173,25l167,30l146-93c120-77,146-90,152-76c4,9,14,77,23,151s19,145,22,158s60,68,140,134l134,112l-159,77l-160,76l-62,162
		c-35,88-66,161-69,160C7968,12159,7911,12103,7845,12034z"/>
	<path class="st0" d="M1480,11025l-65-43l-90,10c-49,5-229,10-400,11l-310,2l-3-26c-3-25,0-27,140-63c124-33,342-96,388-112
		c13-5,13-6-1-14c-10-6-107,5-268,28c-138,21-253,37-255,35c-1-2,29-113,69-247l72-244l-114-232c-62-128-113-234-113-235
		c0-2,57-3,128-4c70,0,186-4,257-7l130-6l120-117c66-64,149-144,185-179l66-62l82,233c46,128,86,238,90,244s107,64,230,128
		c122,64,222,120,222,123c-1,4-78,66-172,137c-214,163-238,185-238,219c0,14,4,26,9,26s66-24,137-54c912-380,1522-833,2185-1626
		c57-69,181-222,274-340c433-547,455-574,455-549c0,41-29,279-45,369c-130,731-492,1336-1065,1778c-481,371-1144,634-1865,737
		c-66,10-125,19-132,21c-7,1-15,20-19,41C1553,11070,1550,11070,1480,11025z"/>
	<path class="st0" d="M9265,10494c-11-3-78-16-149-30c-414-81-819-265-1126-511c-221-176-366-326-745-768c-128-148-273-315-323-369
		l-91-100l30-18c16-10,34-18,40-18c17,0,245,136,654,391c564,351,802,482,1085,597c320,129,662,201,900,187c417-23,827-135,1244-339
		c374-184,687-407,987-706c183-181,295-315,407-482c36-54,70-98,77-98c6,0,19,6,29,13c16,12,12,22-51,132
		c-460,800-929,1352-1436,1686c-329,218-682,355-1067,414C9627,10491,9304,10504,9265,10494z"/>
	<path class="st0" d="M7244,10286c-299-109-433-270-478-579c-16-106-21-355-10-441c9-61,34-62,70-3c15,23,83,129,152,236
		c199,310,283,473,358,694c32,94,35,128,10,127C7340,10319,7294,10304,7244,10286z"/>
	<path class="st0" d="M10470,9210c-158-189-232-271-250-274c-14-3-171-24-350-47c-179-22-326-42-328-44c-2-1,67-114,153-250
		c85-136,155-248,155-249c0,0-129-1-288-1c-165,0-338-6-407-14c-761-82-1381-347-1828-781c-102-98-267-286-267-302c0-3,55,23,123,57
		c786,406,1585,543,2447,419c96-14,176-26,177-28c2-2-3-34-11-72s-13-70-12-72c2-1,78,16,169,39l166,41l143-36
		c192-50,416-118,557-171c866-323,1443-863,1874-1753c65-136,81-161,93-151c11,9,14,40,14,134c0,759-360,1462-1020,1990
		c-166,133-381,271-552,356c-69,34-88,48-88,65c0,14,77,93,255,260c140,131,255,242,255,245c0,4-143,64-317,134
		c-175,70-323,133-330,139c-6,6-69,135-141,286c-71,151-137,292-148,312l-19,37L10470,9210z"/>
	<path class="st0" d="M2510,9060c-168-15-200-20-200-35c0-22,26-36,356-186c362-164,622-296,795-404c131-81,341-236,448-329
		c36-31,68-53,73-48c10,10-82,244-151,380c-183,365-387,538-716,608C3032,9064,2654,9073,2510,9060z"/>
	<path class="st0" d="M8170,8963c-157-27-383-126-542-240c-390-277-547-494-673-931c-14-47-24-87-22-89c2-1,57,51,123,118
		c260,264,453,398,881,612c400,201,570,265,719,274c74,5,97,2,128-12c32-15,39-16,47-4c5,8,9,17,9,21c0,13-161,120-254,169
		C8445,8955,8297,8985,8170,8963z"/>
	<path class="st0" d="M2645,7905c-11-2-76-9-145-15c-629-59-1311-319-1987-759c-73-47-133-89-133-92c0-4,78,17,173,46
		c668,205,1305,347,1852,414c331,41,433,46,860,46c468,0,601-9,1022-71c153-22,175-24,200-11l27,15l-90,45
		c-356,179-785,310-1185,363C3135,7899,2693,7914,2645,7905z"/>
	<path class="st0" d="M3606,7248c-143-16-293-90-456-227c-95-80-429-408-422-415c3-3,20,4,38,15c244,150,733,297,1254,376
		c131,20,419,23,515,6c33-6,61-10,63-8c1,1-24,18-55,37c-199,122-412,192-662,217C3764,7261,3718,7261,3606,7248z"/>
	<path class="st0" d="M9060,7064c-7-16-45-117-85-224s-78-208-84-224l-11-29l-41,59c-54,78-169,195-245,250c-82,59-229,127-334,156
		c-74,20-107,23-255,22c-150,0-181-4-266-26c-176-48-414-165-414-204c0-17,11-20,95-27c547-45,875-124,1210-292l93-47l-54-29
		c-30-17-114-60-186-97c-73-37-132-70-130-73c1-4,100-84,221-180c120-95,222-182,226-193c5-12,25-131,45-266s40-257,43-271
		c7-26,10-24,250,134l243,160l287-46c157-26,287-46,287-44c1,1-33,128-76,282l-78,279l129,252c72,139,130,256,130,261
		s-129,14-287,21l-288,12l-207,207l-207,207L9060,7064z"/>
	<path class="st0" d="M825,6589c-145-283-151-292-190-309c-22-9-163-61-313-115S51,6063,52,6059c2-5,105-111,229-236
		c216-217,227-230,232-273c3-25,9-160,12-300s8-272,11-292l6-37l297,148l297,149l322-93c177-51,322-91,322-89c0,3-23,152-50,332
		l-51,327l186,275c158,234,183,276,168,282c-10,4-146,28-303,53s-297,48-312,51c-21,4-73,64-230,265c-111,142-204,259-207,259
		S908,6749,825,6589z"/>
	<path class="st0" d="M4705,6639c-683-64-1297-253-1803-556c-282-168-461-309-702-552c-397-400-670-855-836-1396
		c-83-270-144-637-144-873v-62l-77,5c-245,15-255,16-250,3c2-7,72-180,155-384l151-370l-145-384c-79-211-143-384-142-386
		c2-1,187,11,411,27l408,29l318-255c175-140,321-255,324-255s49,178,103,397l98,396l344,228l345,227l-49,31c-27,17-184,115-350,218
		l-301,187l-98,361c-54,198-104,377-110,397l-10,37l-315-264c-312-262-315-265-360-264c-97,1-330,16-335,21c-8,8,297,553,476,854
		c470,788,881,1272,1422,1676c359,268,858,552,1382,788c148,67,205,101,205,122c0,4-6,7-12,7C4801,6648,4755,6644,4705,6639z"/>
	<path class="st0" d="M7210,6539c629-522,1066-1271,1309-2244c16-66,37-156,46-200c27-131,94-519,91-523c-2-2-13,23-23,55
		c-53,155-156,423-162,417c-3-3-92-90-196-193l-190-188l-64-6c-71-8-211-9-211-3c0,2,8,24,19,48c38,89,93,266,116,373
		c165,762-152,1480-925,2102c-58,47-113,89-123,94c-9,6,13-27,50-73c238-296,428-685,528-1087c112-449,125-996,35-1521
		c-34-196-132-586-161-642c-47-88,145,157,248,319l59,91l57-113l56-113l-75-263c-41-144-72-264-69-267s127,14,276,37l272,42l230-155
		c127-86,232-154,234-152s23,126,47,276c25,150,49,277,54,282c13,13,16-7,56-349c85-717,141-1421,181-2262c8-181,18-308,24-314
		s11-8,11-5s14,66,31,139c135,592,191,1108,192,1764c0,443-20,774-72,1204c-15,124-15,144-3,149c12,4,12,7-2,17c-13,10-23,56-42,181
		c-111,754-209,1171-366,1564c-105,261-269,546-431,745c-85,105-301,315-402,392c-192,145-411,271-620,358
		C7218,6546,7193,6554,7210,6539z"/>
	<path class="st0" d="M5000,6099c-106-12-222-37-310-66c-109-36-287-124-346-172c-122-97-214-268-259-480c-33-158-73-609-56-639
		c11-19,22,0,195,336c143,278,236,431,314,514c54,58,239,203,387,303c115,78,257,150,315,160c34,6,40,11,40,31c0,24,0,24-102,23
		C5121,6108,5041,6104,5000,6099z"/>
	<path class="st0" d="M5795,5853c-302-226-518-568-629-995c-99-378-120-765-70-1273l7-69l-52,37c-34,25-53,33-56,25
		c-2-7-25-130-50-273c-26-143-51-264-55-270c-5-5-106-82-224-170s-215-162-215-165s111-64,246-136l246-131l88-258
		c49-142,91-260,94-263s34,21,68,54s123,119,198,190l136,131l279,7c153,4,280,9,282,10c1,2-51,115-118,253l-120,249l81,263
		c45,144,78,265,76,268c-3,3-128-12-277-32c-253-34-272-36-295-21c-14,9-25,20-25,24c0,28,67,533,100,753c66,446,137,826,220,1179
		c37,159,159,645,167,666C5907,5932,5886,5921,5795,5853z"/>
	<path class="st0" d="M6447,5897c-13-20-18-89-28-388c-11-360-8-639,11-801c14-124,42-288,49-288c8,0,72,102,120,190
		c47,88,106,258,120,350c16,94,13,264-4,366c-9,49-32,138-52,198c-38,113-169,387-189,393C6468,5919,6456,5910,6447,5897z"/>
</g>
</svg>
