<svg width="238" height="36" viewBox="0 0 238 36" fill="none" xmlns="http://www.w3.org/2000/svg">
<g clip-path="url(#clip0_3097_205)">
<path d="M7.389 26.6525L0 9.34375H5.28823L11.5155 24.3258H8.40066L14.778 9.34375H19.6209L12.2077 26.6501H7.38658L7.389 26.6525Z" fill="white"/>
<path d="M21.8711 26.6525V9.34375H26.7648V26.6501H21.8711V26.6525Z" fill="white"/>
<path d="M37.5671 27.0036C36.1513 27.0036 34.7863 26.8269 33.4769 26.471C32.1676 26.1175 31.1002 25.6599 30.2773 25.0982L31.8844 21.4883C32.6589 21.9822 33.5519 22.3914 34.566 22.7109C35.5801 23.033 36.5893 23.1927 37.5937 23.1927C38.269 23.1927 38.8135 23.1322 39.225 23.0063C39.6364 22.8828 39.939 22.7182 40.1277 22.5124C40.3165 22.3066 40.4133 22.0645 40.4133 21.7836C40.4133 21.389 40.2318 21.0742 39.8688 20.8442C39.5057 20.6142 39.0362 20.423 38.4602 20.2753C37.8842 20.1276 37.2452 19.9775 36.5458 19.8298C35.8463 19.6821 35.1445 19.4932 34.445 19.2608C33.7431 19.0308 33.1066 18.7282 32.5306 18.3577C31.9546 17.9873 31.4826 17.5006 31.122 16.9002C30.759 16.2998 30.5775 15.5371 30.5775 14.6122C30.5775 13.5735 30.863 12.6341 31.4294 11.794C31.9981 10.9539 32.8501 10.2784 33.9876 9.7675C35.1251 9.25664 36.5409 9 38.2375 9C39.375 9 40.4908 9.12832 41.5871 9.38254C42.6835 9.63918 43.6589 10.012 44.5156 10.5084L43.0078 14.1425C42.1849 13.697 41.3669 13.3629 40.561 13.1402C39.7526 12.9174 38.9709 12.806 38.2133 12.806C37.5381 12.806 36.9935 12.8763 36.5821 13.0167C36.1706 13.1571 35.8729 13.3435 35.6914 13.5735C35.5099 13.8036 35.4204 14.0675 35.4204 14.3653C35.4204 14.7454 35.597 15.0456 35.9528 15.2683C36.3062 15.4911 36.7757 15.6727 37.3614 15.8131C37.9447 15.9535 38.5885 16.0964 39.2903 16.2465C39.9898 16.3942 40.6892 16.5806 41.3911 16.8033C42.0905 17.0261 42.7295 17.3215 43.3055 17.6943C43.8815 18.0648 44.3462 18.5514 44.702 19.1543C45.0553 19.7571 45.2344 20.5101 45.2344 21.4156C45.2344 22.4204 44.9513 23.3477 44.3825 24.1975C43.8138 25.0473 42.9643 25.7277 41.8364 26.2361C40.7062 26.747 39.2855 27.0036 37.572 27.0036H37.5671Z" fill="white"/>
<path d="M48.7109 26.6525V9.34375H53.6047V26.6501H48.7109V26.6525Z" fill="white"/>
<path d="M62.0102 26.6501V13.2248H56.6953V9.34375H72.1921V13.2248H66.9039V26.6501H62.0102Z" fill="white"/>
<path d="M123.37 17.7878C127.26 17.7878 130.633 18.7006 132.245 19.3374V13.7736H121.018V9.16612H134.116V0.71875H110.988V20.4196C114.834 19.0928 118.743 17.7878 123.368 17.7878H123.37Z" fill="white"/>
<path d="M148.725 23.8216C148.996 23.8216 149.255 23.8144 149.516 23.8095C148.241 22.2237 147.517 20.1657 147.517 17.9988C147.517 13.4398 150.828 9.16645 155.867 9.16645C160.906 9.16645 164.217 13.4374 164.217 17.9988C164.217 18.5242 164.168 19.0399 164.088 19.5459C166.477 18.6089 169.193 17.8777 172.874 17.8777C173.384 17.8777 173.866 17.8923 174.338 17.9116C174.294 8.06483 166.726 0 155.867 0C145.007 0 137.441 8.11083 137.441 17.9988C137.441 19.0665 137.533 20.11 137.698 21.1245C140.534 22.5191 143.255 23.8216 148.725 23.8216Z" fill="white"/>
<path d="M226.995 21.5721V0.71875H215.77V18.3979C221.382 17.599 225.446 20.0661 226.995 21.5721Z" fill="white"/>
<path d="M209.556 20.8046V0.71875H199.48V23.6906C203.752 23.2935 206.705 22.0394 209.556 20.8046Z" fill="white"/>
<path d="M185.696 21.0782C186.623 21.5503 187.536 22.0103 188.543 22.4195V0.71875H178.516V18.3907C181.621 19.0081 183.748 20.0855 185.699 21.0757L185.696 21.0782Z" fill="white"/>
<path d="M121.019 22.1562C117.212 22.58 114.158 23.7469 110.992 24.8631V35.2789H134.839V26.8315H121.019V22.1562Z" fill="white"/>
<path d="M196.618 28.0164C190.078 28.0164 186.741 26.3168 183.793 24.8157C182.188 23.9998 180.63 23.2105 178.531 22.6875C178.747 30.6361 184.41 35.9965 194.009 35.9965C202.465 35.9965 207.862 31.8733 209.21 25.5009C205.991 26.8107 202.182 28.0116 196.615 28.0116L196.618 28.0164Z" fill="white"/>
<path d="M226.995 26.8257C223.396 22.0682 216.929 22.3272 215.77 22.7315V35.2707H237.6V26.8233H226.995V26.8257Z" fill="white"/>
<path d="M172.871 22.0781C168.5 22.0781 165.879 23.2766 162.842 24.6615C159.395 26.2352 155.486 28.022 148.727 28.022C144.622 28.022 141.8 27.3804 139.477 26.5137C142.424 32.1864 148.364 36.0045 155.866 36.0045C165.228 36.0045 172.138 30.1163 173.897 22.0951C173.566 22.0854 173.227 22.0781 172.873 22.0781H172.871Z" fill="white"/>
<path d="M95.6483 28.0201C88.1432 28.1218 82.7799 24.9864 81.957 24.5312V34.1311C84.6435 35.2836 88.6272 36.0026 92.5117 36.0026C101.104 36.0026 105.942 32.4266 106.382 26.4052C103.311 27.3204 99.9104 27.962 95.6483 28.0201Z" fill="white"/>
<path d="M103.037 22.9161C103.998 22.7055 104.983 22.4513 105.954 22.1462C104.71 18.1392 101.111 16.2507 96.6359 14.3985C93.1338 12.958 91.0209 12.0936 91.0209 10.8467C91.0209 9.45457 92.749 8.63865 95.5783 8.63865C98.7923 8.63865 102.006 9.45457 104.119 10.8467V1.63185C101.723 0.624655 98.1728 0 94.7191 0C86.512 0 81.1875 4.36774 81.1875 10.8467C81.1875 17.3257 85.1228 19.7735 90.687 21.9356C90.7063 21.9428 90.7257 21.9501 90.745 21.9574C94.6586 23.4803 98.9351 23.812 103.037 22.9161Z" fill="white"/>
</g>
<defs>
<clipPath id="clip0_3097_205">
<rect width="238" height="36" fill="white"/>
</clipPath>
</defs>
</svg>
