<?xml version="1.0" encoding="utf-8"?>
<!-- Generator: Adobe Illustrator 24.0.0, SVG Export Plug-In . SVG Version: 6.00 Build 0)  -->
<svg version="1.1" id="Layer_1" xmlns="http://www.w3.org/2000/svg" xmlns:xlink="http://www.w3.org/1999/xlink" x="0px" y="0px"
	 viewBox="0 0 375 375" style="enable-background:new 0 0 375 375;" xml:space="preserve">
<g>
	<path d="M98.4,274.8c8.3,3.3,16.6,6.6,24.8,9.9c-0.1,0.6-0.2,1.1-0.3,1.7c-19.4,0.4-38.9,0.8-58.3,1.2c-0.1-0.4-0.1-0.8-0.2-1.3
		c4.6-1.4,9.2-2.9,13.9-4.2c7.2-2.1,13.1-5.5,16.7-12.7c3.1-6.1,7.3-11.7,11.2-17.3c1.9-2.8,1.5-4.9-0.8-7.1
		c-7.7-7.2-15.4-14.4-23.1-21.6c-0.8-0.7-1.6-1.5-2.1-2.6c5.5,2.3,10.9,4.9,16.5,6.8c4.6,1.6,9.4,3,14.2,3.4
		c6.2,0.6,11.1-2.6,14.5-7.9c4.4-6.9,5.4-14.6,5.5-22.7c-6.8-0.6-13.4-1-19.9-1.9c-11.6-1.5-23-3.5-33.4-9.5
		c-7.9-4.6-9.5-11.4-7.9-20c0.7-3.8,3.6-6.3,7.4-5.7c4.6,0.6,9.3,2,13.7,3.7c12,4.9,24.5,7.7,37.7,8.7c-1.6-1.2-3.2-2.4-4.9-3.5
		c-10.6-6.9-21-14-31.9-20.5c-5.4-3.2-11.4-5.7-17.5-7.4c-7.3-2.1-12.3,0.7-15.7,7.5c-4.2,8.4-3.8,17.4-2.7,26.4
		c1,8.1,2.9,16.1,4.4,24.2c0,0-0.3,0.1-0.3,0C51.4,189.8,43.3,177,39,162.4c-1.4-4.7-1.4-9.9-1.6-14.9c-0.5-8.8-0.1-17.7-1.2-26.4
		c-1.1-8.2-5.4-11.5-13.7-12.4c-4.4-0.5-8.8-0.7-13.6-1c1.7-3.9,4.7-6.1,8.3-7.7c7.5-3.3,15-6.5,22.6-9.7c13-5.6,25.4-2.4,33.9,9.2
		c3.8,5.2,7.3,10.9,9.9,16.8c5.2,12.1,14.1,19.9,26.1,24.9c35.5,15,70.8,30.3,106.1,45.7c7.1,3.1,13.9,6.7,20.8,10.2
		c1.9,1,3.6,2.5,5.3,3.7c0,0.4,0,0.9,0,1.3c-2.2,0.6-4.5,1.8-6.6,1.6c-9.2-0.6-18.3-1.6-27.5-2.5c-0.6-0.1-1.2-0.2-1.9,0.3
		c9.6,2.6,19.2,5.2,28.9,7.8c38.7,10.3,77.5,20.7,116.2,31c3.1,0.8,6.2,1.4,9.3,2.2c5.4,1.4,7.2,5.3,4.8,10.4
		c-2.5,5.3-8.1,8.7-13.9,7.3c-9.8-2.4-19.4-5.1-29.1-8c-39.7-11.8-79.4-23.6-119.2-35.5c-4.5-1.3-9.1-2.3-13.4-4.1
		c-6.9-2.9-13.3,0.2-19.9,1c-6.4,0.8-12.8,2.2-19.2,3.5c-1.3,0.3-2.8,1-3.7,2c-16,18.2-31.8,36.4-47.7,54.7
		C98.9,274,98.6,274.4,98.4,274.8z"/>
</g>
</svg>
