<?xml version="1.0" encoding="utf-8"?>
<!-- Generator: Adobe Illustrator 24.0.0, SVG Export Plug-In . SVG Version: 6.00 Build 0)  -->
<svg version="1.1" id="Layer_1" xmlns="http://www.w3.org/2000/svg" xmlns:xlink="http://www.w3.org/1999/xlink" x="0px" y="0px"
	 viewBox="0 0 375 222" style="enable-background:new 0 0 375 222;" xml:space="preserve">
<style type="text/css">
	.st0{fill:#FFFFFF;}
</style>
<g>
	<path class="st0" d="M95,200.8c8.6,3.4,17.1,6.8,25.6,10.2c-0.1,0.6-0.2,1.2-0.4,1.8c-20.1,0.4-40.2,0.8-60.2,1.2
		c-0.1-0.4-0.1-0.9-0.2-1.3c4.8-1.5,9.5-3,14.3-4.4c7.4-2.1,13.5-5.7,17.2-13.1c3.2-6.3,7.5-12,11.5-17.9c2-2.8,1.6-5.1-0.8-7.3
		c-8-7.4-15.9-14.9-23.9-22.3c-0.8-0.8-1.6-1.5-2.2-2.7c5.7,2.4,11.2,5.1,17,7.1c4.7,1.6,9.7,3.1,14.6,3.5c6.4,0.6,11.5-2.7,15-8.1
		c4.5-7.1,5.6-15,5.7-23.5c-7-0.7-13.8-1.1-20.6-2c-12-1.6-23.8-3.6-34.5-9.8c-8.2-4.7-9.8-11.7-8.1-20.6c0.7-3.9,3.7-6.5,7.7-5.9
		c4.8,0.7,9.6,2,14.1,3.9c12.4,5,25.3,7.9,38.9,9c-1.7-1.2-3.3-2.5-5-3.6c-10.9-7.1-21.7-14.5-32.9-21.1c-5.6-3.3-11.8-5.9-18-7.6
		c-7.5-2.2-12.7,0.7-16.2,7.7c-4.3,8.7-4,18-2.8,27.2c1.1,8.4,3,16.6,4.5,25c0,0-0.3,0.1-0.4,0c-8.7-13-17.1-26.1-21.6-41.2
		c-1.4-4.9-1.4-10.2-1.7-15.3c-0.5-9.1-0.1-18.3-1.2-27.3c-1.1-8.5-5.6-11.9-14.1-12.9c-4.5-0.5-9.1-0.7-14.1-1c1.8-4,4.9-6.3,8.6-8
		c7.7-3.4,15.5-6.7,23.3-10c13.4-5.7,26.3-2.5,35.1,9.5c3.9,5.4,7.5,11.2,10.2,17.3c5.4,12.5,14.5,20.5,26.9,25.8
		c36.6,15.5,73.1,31.3,109.6,47.1c7.3,3.2,14.4,6.9,21.5,10.5c2,1,3.7,2.5,5.5,3.8c0,0.5,0,0.9,0,1.4c-2.3,0.6-4.6,1.8-6.8,1.7
		c-9.5-0.6-18.9-1.7-28.3-2.6c-0.6-0.1-1.2-0.2-1.9,0.3c9.9,2.7,19.9,5.4,29.8,8c40,10.7,80,21.3,120,32c3.2,0.8,6.4,1.4,9.6,2.2
		c5.6,1.4,7.4,5.5,5,10.8c-2.5,5.5-8.4,8.9-14.4,7.5c-10.1-2.4-20.1-5.3-30-8.2c-41-12.2-82-24.4-123.1-36.6
		c-4.6-1.4-9.4-2.4-13.8-4.2c-7.1-3-13.7,0.2-20.5,1.1c-6.6,0.9-13.2,2.3-19.8,3.6c-1.4,0.3-2.9,1-3.8,2
		c-16.5,18.8-32.9,37.6-49.3,56.5C95.5,200,95.3,200.5,95,200.8z"/>
</g>
</svg>
