<?xml version="1.0" encoding="utf-8"?>
<!-- Generator: Adobe Illustrator 24.0.0, SVG Export Plug-In . SVG Version: 6.00 Build 0)  -->
<svg version="1.1" id="svg388" xmlns:svg="http://www.w3.org/2000/svg"
	 xmlns="http://www.w3.org/2000/svg" xmlns:xlink="http://www.w3.org/1999/xlink" x="0px" y="0px" viewBox="0 0 200 30.9"
	 style="enable-background:new 0 0 200 30.9;" xml:space="preserve">
<style type="text/css">
	.st0{fill:#FFFFFF;}
	.st1{stroke:#FFFFFF;stroke-miterlimit:10;}
</style>
<path class="st0" d="M128.8,29.6c-1.4,0-2.7-0.3-4.1-0.8s-2.6-1.3-3.7-2.2l2.9-3.4c0.7,0.6,1.5,1.1,2.5,1.5c0.9,0.4,1.8,0.6,2.6,0.6
	c0.9,0,1.6-0.2,2.1-0.5c0.4-0.3,0.7-0.8,0.7-1.3c0-0.4-0.1-0.7-0.4-1s-0.6-0.5-1-0.7s-1-0.4-1.6-0.7L126,20
	c-0.7-0.3-1.4-0.7-2.1-1.2c-0.6-0.5-1.2-1.1-1.6-1.9s-0.6-1.6-0.6-2.6c0-1.2,0.3-2.2,1-3.2c0.6-1,1.5-1.7,2.7-2.3
	c1.1-0.6,2.4-0.8,3.9-0.8c1.2,0,2.4,0.2,3.6,0.7c1.2,0.5,2.2,1.1,3.2,2.1l-2.5,3.1c-0.7-0.5-1.4-0.9-2-1.2c-0.7-0.3-1.4-0.4-2.2-0.4
	s-1.4,0.1-1.8,0.4c-0.4,0.3-0.7,0.7-0.7,1.3c0,0.4,0.1,0.7,0.4,1s0.6,0.5,1.1,0.7s1,0.4,1.6,0.7l2.6,1c0.9,0.3,1.6,0.8,2.2,1.3
	c0.6,0.5,1.1,1.1,1.4,1.9c0.3,0.7,0.5,1.6,0.5,2.6c0,1.2-0.3,2.2-0.9,3.2c-0.6,1-1.5,1.8-2.7,2.4C131.9,29.3,130.4,29.6,128.8,29.6z
	"/>
<path class="st0" d="M140.2,29.2V8.4h7.3c1.5,0,2.9,0.2,4.2,0.6c1.3,0.4,2.3,1.1,3,2.1c0.8,1,1.1,2.3,1.1,4.1c0,1.6-0.4,3-1.1,4
	s-1.8,1.8-3,2.3c-1.3,0.5-2.6,0.8-4.1,0.8 M145.2,18.4h2.2c1.2,0,2.1-0.3,2.7-0.8c0.6-0.6,0.9-1.3,0.9-2.4c0-1-0.3-1.8-1-2.2
	s-1.6-0.6-2.8-0.6h-2L145.2,18.4L145.2,18.4z"/>
<path class="st0" d="M168,29.6c-1.9,0-3.5-0.4-5-1.3s-2.6-2.1-3.4-3.8c-0.8-1.6-1.2-3.6-1.2-5.9s0.4-4.2,1.2-5.8s1.9-2.8,3.4-3.6
	c1.4-0.8,3.1-1.2,5-1.2s3.6,0.4,5,1.3c1.4,0.8,2.5,2.1,3.3,3.6c0.8,1.6,1.2,3.5,1.2,5.8s-0.4,4.2-1.2,5.9c-0.8,1.6-1.9,2.9-3.3,3.8
	S169.9,29.6,168,29.6z M168,25.3c0.9,0,1.7-0.3,2.4-0.8s1.2-1.3,1.5-2.3s0.5-2.2,0.5-3.5s-0.2-2.5-0.5-3.5s-0.9-1.7-1.5-2.2
	c-0.7-0.5-1.5-0.8-2.4-0.8s-1.7,0.3-2.4,0.8s-1.2,1.2-1.5,2.2c-0.4,1-0.5,2.1-0.5,3.5c0,1.3,0.2,2.5,0.5,3.5c0.4,1,0.9,1.8,1.5,2.3
	C166.3,25,167.1,25.3,168,25.3z"/>
<path class="st0" d="M184.3,29.2V12.5h-5.6V8.4H195v4.2h-5.7v16.7L184.3,29.2L184.3,29.2z"/>
<g>
	<path class="st1" d="M0,0"/>
</g>
<g>
	<path class="st1" d="M0,0"/>
</g>
<g>
	<path class="st1" d="M0,0"/>
</g>
<g>
	<path class="st1" d="M0,0"/>
</g>
<g>
	<path class="st0" d="M114.6,26.1c-6.8,0-10.6-1.6-14-3.4v6.9h17.9V26C117.5,26.1,116.2,26.1,114.6,26.1z"/>
	<path class="st0" d="M101.4,18.6c1.9,1,3.7,1.9,6,2.6V1.1h-6.8v17.1C100.9,18.4,101.1,18.5,101.4,18.6z"/>
</g>
<g>
	<path class="st0" d="M89.8,18.9c-0.1,0.9-0.3,1.8-0.5,2.4c-0.3,1.1-0.9,1.8-1.6,2.3s-1.6,0.7-2.6,0.7s-1.9-0.2-2.6-0.7
		s-1.2-1.2-1.6-2.3c-0.2-0.6-0.3-1.3-0.4-2.1c-2.6,0.5-4.5,1.4-6.4,2.4c0.1,0.3,0.1,0.6,0.2,1c0.5,1.7,1.2,3.2,2.2,4.3
		s2.2,2,3.6,2.5s3.1,0.8,5,0.8s3.6-0.3,5-1c1.5-0.5,2.6-1.4,3.6-2.5c0.9-1.1,1.6-2.5,2.1-4.3c0.2-0.6,0.3-1.2,0.4-1.9
		C94.4,19.8,92.4,19.1,89.8,18.9z"/>
	<path class="st0" d="M96.5,16.3v-0.1V1.1h-6.6v13.7C92.6,15.1,94.7,15.7,96.5,16.3z"/>
	<path class="st0" d="M80.4,15.2V1.1h-6.8v15.3c0,0.3,0,0.7,0,1C75.5,16.5,77.6,15.7,80.4,15.2z"/>
</g>
<g>
	<path class="st0" d="M53.2,21.7c-0.3-0.5-0.6-1-0.8-1.6c-0.5-1.4-0.7-3-0.7-4.8s0.2-3.4,0.7-4.7s1.2-2.3,2.1-3s2-1,3.2-1
		s2.3,0.3,3.2,1s1.6,1.7,2.1,3s0.7,2.8,0.7,4.7s-0.2,3.4-0.7,4.8c-0.2,0.6-0.5,1.2-0.9,1.8c3.6-0.5,5.9-1.6,8.3-2.8
		c0.2-1.2,0.3-2.4,0.3-3.8c0-3.1-0.5-5.7-1.6-7.9s-2.6-3.9-4.6-5c-1.9-1.1-4.2-1.7-6.8-1.7s-4.8,0.6-6.8,1.7c-2,1.2-3.5,2.8-4.6,5
		c-1.1,2.1-1.6,4.8-1.6,7.9c0,1.2,0.1,2.3,0.3,3.4C47.4,20,49.7,21.2,53.2,21.7z"/>
	<path class="st0" d="M58,26.1c-5.1,0-8.5-0.9-11.3-2.1c1.1,1.9,2.4,3.3,4.2,4.4c2,1.2,4.2,1.8,6.8,1.8s4.9-0.6,6.8-1.8
		c1.7-1,3-2.4,4-4.1C65.9,25.4,62.6,26.1,58,26.1z"/>
</g>
<g>
	<path class="st0" d="M29.7,14.7c4.8,0,8.1,0.8,10.8,1.9v-4.5H31V6.8h11.3V1.1H24.2v13.8C25.8,14.8,27.6,14.7,29.7,14.7z"/>
	<path class="st0" d="M31,18.7c-0.4,0-0.8,0-1.3,0c-2.1,0-3.9,0.1-5.5,0.3v10.5h18.4v-5.7H31V18.7z"/>
</g>
<g>
	<path class="st0" d="M4.3,15.4C5.2,16,6.1,16.6,7.1,17l3,1.3c1.7-0.4,3.2-0.8,4.7-1.3s3.1-1,4.8-1.4c-0.2-0.2-0.4-0.4-0.6-0.6
		c-0.8-0.8-1.8-1.3-3-1.8l-3.6-1.4c-0.8-0.3-1.6-0.6-2.2-0.9c-0.6-0.3-1.1-0.6-1.5-1C8.3,9.7,8.1,9.2,8.1,8.7C8.1,8,8.4,7.4,9,7
		s1.5-0.6,2.5-0.6c1.2,0,2.2,0.2,3.1,0.6c0.9,0.3,1.9,0.9,2.8,1.6l3.4-4.3c-1.2-1.2-2.7-2.2-4.3-2.8c-1.6-0.6-3.2-0.9-4.9-0.9
		c-2,0-3.8,0.4-5.2,1.1C4.8,2.5,3.6,3.5,2.7,4.8S1.4,7.6,1.4,9.2c0,1.4,0.3,2.6,0.8,3.6C2.7,13.9,3.4,14.7,4.3,15.4z"/>
	<path class="st0" d="M16,20.9c-0.4,0.1-0.9,0.3-1.3,0.4c0,0.2,0.1,0.3,0.1,0.5c0,0.7-0.3,1.4-0.9,1.8c-0.6,0.5-1.5,0.7-2.8,0.7
		c-1.1,0-2.3-0.3-3.5-0.8c-0.4-0.2-0.7-0.3-1.1-0.5c-1.1,0.1-2.3,0.2-3.7,0.2l-2.4,2.9c1.4,1.4,3.1,2.4,5,3.1s3.7,1,5.6,1
		c2.3,0,4.2-0.5,5.7-1.4c1.6-0.9,2.8-1.9,3.7-3.3c0.9-1.4,1.3-2.8,1.3-4.4c0-0.6-0.1-1.2-0.2-1.7C19.4,19.8,17.7,20.3,16,20.9z"/>
</g>
</svg>
