<?xml version="1.0" encoding="utf-8"?>
<!-- Generator: Adobe Illustrator 24.0.0, SVG Export Plug-In . SVG Version: 6.00 Build 0)  -->
<svg version="1.1" id="svg388" xmlns:svg="http://www.w3.org/2000/svg"
	 xmlns="http://www.w3.org/2000/svg" xmlns:xlink="http://www.w3.org/1999/xlink" x="0px" y="0px" viewBox="0 0 200 30.9"
	 style="enable-background:new 0 0 200 30.9;" xml:space="preserve">
<style type="text/css">
	.st0{fill:none;stroke:#FFFFFF;stroke-miterlimit:10;}
	.st1{fill:none;stroke:#FFFFFF;stroke-width:2;stroke-miterlimit:10;}
</style>
<g>
	<g>
		<path d="M10.9,30.2c-1.9,0-3.7-0.3-5.6-1s-3.6-1.7-5-3.1l3.9-4.7c1,0.9,2.1,1.6,3.3,2.1s2.4,0.8,3.5,0.8c1.3,0,2.2-0.2,2.8-0.7
			c0.6-0.4,0.9-1.1,0.9-1.8c0-0.6-0.2-1-0.5-1.4c-0.3-0.3-0.8-0.7-1.4-0.9c-0.6-0.3-1.3-0.6-2.1-0.9L7.1,17c-1-0.4-1.9-1-2.8-1.6
			c-0.9-0.7-1.6-1.5-2.1-2.6c-0.5-1-0.8-2.2-0.8-3.6c0-1.6,0.4-3.1,1.3-4.4s2.1-2.3,3.7-3.1C7.8,1,9.6,0.6,11.6,0.6
			c1.7,0,3.3,0.3,4.9,0.9s3.1,1.6,4.3,2.8l-3.4,4.3c-0.9-0.7-1.9-1.3-2.8-1.6c-0.9-0.4-1.9-0.6-3.1-0.6c-1,0-1.9,0.2-2.5,0.6
			S8.1,8,8.1,8.7c0,0.5,0.2,1,0.6,1.3c0.4,0.4,0.9,0.7,1.5,1s1.4,0.6,2.2,0.9l3.6,1.4c1.2,0.5,2.2,1,3,1.8c0.8,0.7,1.5,1.6,1.9,2.5
			c0.4,1,0.7,2.1,0.7,3.5c0,1.6-0.4,3-1.3,4.4s-2.1,2.4-3.7,3.3C15.1,29.7,13.2,30.2,10.9,30.2z"/>
		<path d="M24.2,29.6V1.1h18.1v5.7H31v5.3h9.5v5.7H31v6h11.6v5.7H24.2V29.6z"/>
		<path d="M57.7,30.2c-2.6,0-4.8-0.6-6.8-1.8c-2-1.2-3.5-2.9-4.6-5.1s-1.6-4.9-1.6-8s0.5-5.8,1.6-7.9c1.1-2.2,2.6-3.8,4.6-5
			c2-1.1,4.2-1.7,6.8-1.7s4.9,0.6,6.8,1.7c2,1.1,3.5,2.8,4.6,5s1.6,4.8,1.6,7.9s-0.5,5.8-1.6,8s-2.6,3.9-4.6,5.1
			C62.6,29.6,60.3,30.2,57.7,30.2z M57.7,24.3c1.2,0,2.3-0.4,3.2-1.1s1.6-1.8,2.1-3.1c0.5-1.4,0.7-2.9,0.7-4.8s-0.2-3.4-0.7-4.7
			s-1.2-2.3-2.1-3c-0.9-0.7-2-1-3.2-1s-2.3,0.3-3.2,1s-1.6,1.7-2.1,3s-0.7,2.9-0.7,4.7s0.2,3.4,0.7,4.8s1.2,2.4,2.1,3.1
			C55.4,23.9,56.5,24.3,57.7,24.3z"/>
		<path d="M85.1,30.2c-1.9,0-3.6-0.3-5-0.8s-2.6-1.4-3.6-2.5s-1.7-2.6-2.2-4.3c-0.5-1.8-0.7-3.8-0.7-6.2V1.1h6.8V17
			c0,1.8,0.2,3.2,0.5,4.3c0.4,1.1,0.9,1.8,1.6,2.3s1.6,0.7,2.6,0.7s1.9-0.2,2.6-0.7s1.3-1.2,1.6-2.3c0.4-1.1,0.6-2.5,0.6-4.3V1.1
			h6.6v15.1c0,2.4-0.2,4.5-0.7,6.2c-0.5,1.8-1.2,3.2-2.1,4.3c-1,1.1-2.1,2-3.6,2.5C88.7,29.9,87,30.2,85.1,30.2z"/>
		<path d="M100.6,29.6V1.1h6.8v22.8h11.1v5.7C118.5,29.6,100.6,29.6,100.6,29.6z"/>
	</g>
	<g>
		<path d="M128.8,29.6c-1.4,0-2.7-0.3-4.1-0.8s-2.6-1.3-3.7-2.2l2.9-3.4c0.7,0.6,1.5,1.1,2.5,1.5c0.9,0.4,1.8,0.6,2.6,0.6
			c0.9,0,1.6-0.2,2.1-0.5c0.4-0.3,0.7-0.8,0.7-1.3c0-0.4-0.1-0.7-0.4-1s-0.6-0.5-1-0.7s-1-0.4-1.6-0.7L126,20
			c-0.7-0.3-1.4-0.7-2.1-1.2c-0.6-0.5-1.2-1.1-1.6-1.9s-0.6-1.6-0.6-2.6c0-1.2,0.3-2.2,1-3.2c0.6-1,1.5-1.7,2.7-2.3
			c1.1-0.6,2.4-0.8,3.9-0.8c1.2,0,2.4,0.2,3.6,0.7c1.2,0.5,2.2,1.1,3.2,2.1l-2.5,3.1c-0.7-0.5-1.4-0.9-2-1.2
			c-0.7-0.3-1.4-0.4-2.2-0.4s-1.4,0.1-1.8,0.4c-0.4,0.3-0.7,0.7-0.7,1.3c0,0.4,0.1,0.7,0.4,1s0.6,0.5,1.1,0.7s1,0.4,1.6,0.7l2.6,1
			c0.9,0.3,1.6,0.8,2.2,1.3c0.6,0.5,1.1,1.1,1.4,1.9c0.3,0.7,0.5,1.6,0.5,2.6c0,1.2-0.3,2.2-0.9,3.2c-0.6,1-1.5,1.8-2.7,2.4
			C131.9,29.3,130.4,29.6,128.8,29.6z"/>
		<path d="M140.2,29.2V8.4h7.3c1.5,0,2.9,0.2,4.2,0.6c1.3,0.4,2.3,1.1,3,2.1c0.8,1,1.1,2.3,1.1,4.1c0,1.6-0.4,3-1.1,4
			s-1.8,1.8-3,2.3c-1.3,0.5-2.6,0.8-4.1,0.8 M145.2,18.4h2.2c1.2,0,2.1-0.3,2.7-0.8c0.6-0.6,0.9-1.3,0.9-2.4c0-1-0.3-1.8-1-2.2
			s-1.6-0.6-2.8-0.6h-2L145.2,18.4L145.2,18.4z"/>
		<path d="M168,29.6c-1.9,0-3.5-0.4-5-1.3s-2.6-2.1-3.4-3.8c-0.8-1.6-1.2-3.6-1.2-5.9s0.4-4.2,1.2-5.8s1.9-2.8,3.4-3.6
			c1.4-0.8,3.1-1.2,5-1.2s3.6,0.4,5,1.3c1.4,0.8,2.5,2.1,3.3,3.6c0.8,1.6,1.2,3.5,1.2,5.8s-0.4,4.2-1.2,5.9
			c-0.8,1.6-1.9,2.9-3.3,3.8S169.9,29.6,168,29.6z M168,25.3c0.9,0,1.7-0.3,2.4-0.8s1.2-1.3,1.5-2.3s0.5-2.2,0.5-3.5
			s-0.2-2.5-0.5-3.5s-0.9-1.7-1.5-2.2c-0.7-0.5-1.5-0.8-2.4-0.8s-1.7,0.3-2.4,0.8s-1.2,1.2-1.5,2.2c-0.4,1-0.5,2.1-0.5,3.5
			c0,1.3,0.2,2.5,0.5,3.5c0.4,1,0.9,1.8,1.5,2.3C166.3,25,167.1,25.3,168,25.3z"/>
		<path d="M184.3,29.2V12.5h-5.6V8.4H195v4.2h-5.7v16.7L184.3,29.2L184.3,29.2z"/>
	</g>
</g>
<g>
	<path class="st0" d="M1.9,133.3c9.1,0,9.1,16,18.2,16c9.1,0,9.1-16,18.2-16c9.1,0,9.1,16,18.2,16c9.1,0,9.1-16,18.2-16
		c9.1,0,9.1,16,18.2,16c9.1,0,9.1-16,18.2-16c9.1,0,9.1,16,18.2,16c9.1,0,9.1-16,18.2-16c9.1,0,9.1,16,18.2,16c9.1,0,9.1-16,18.2-16
		s9.1,16,18.2,16"/>
</g>
<g>
	<path class="st0" d="M2.1,118.6c4.7,0,4.7,8,9.5,8c4.7,0,4.7-8,9.5-8c4.7,0,4.7,8,9.5,8c4.7,0,4.7-8,9.5-8c4.7,0,4.7,8,9.5,8
		c4.7,0,4.7-8,9.5-8c4.7,0,4.7,8,9.5,8c4.7,0,4.7-8,9.5-8c4.7,0,4.7,8,9.5,8c4.7,0,4.7-8,9.5-8c4.7,0,4.7,8,9.5,8c4.7,0,4.7-8,9.5-8
		c4.7,0,4.7,8,9.5,8c4.7,0,4.7-8,9.5-8c4.7,0,4.7,8,9.5,8c4.7,0,4.7-8,9.5-8c4.7,0,4.7,8,9.5,8c4.7,0,4.7-8,9.5-8c4.7,0,4.7,8,9.5,8
		c4.8,0,4.8-8,9.5-8s4.8,8,9.5,8"/>
</g>
<path class="st1" d="M1,20.2c14.1,0,14.6-4.6,28.7-4.6c14.1,0,14.1,7.4,28.3,7.4c14.1,0,14.1-7.4,28.3-7.4c14.1,0,14.1,7.4,28.3,7.4
	c14.1,0,14.1-7.4,28.3-7.4c14.1,0,14.1,7.4,28.3,7.4s14.1-7.4,28.3-7.4"/>
</svg>
